:SAMPLES-PER-SECOND 30
:FULLY-SPECIFIED
:DEGREES
400
root  -2.99595 31.8145 -49.813 -179.169 -84.6185 -174.648
RightUpLeg  9.03086 -5.33335 -0.29322
RightLeg  38.5018 -6.88007 -4.7801
RightFoot  13.7717 0.205121 -1.32081
RightToes  -46.4999 -0.272376 -0.348819
Spine  7.0219 4.99324 -2.43632
Spine1  11.3848 13.4588 -7.89752
HEad  35.8373 3.93907 2.21362
LeftShoulder1  0 -2.42657e-020 -4.95415e-022
LeftArm  -24.2439 -0.46939 -88.4378
LeftForeArm  45.396 -19.2762 -3.51146
LeftHand  0.198719 -9.78374 -2.69336
RightShoulder  0 2.42657e-020 1.07489e-018
RightArm  -22.1981 31.1661 84.4221
RightForeArm  71.7705 11.4735 1.9766
RightHand  1.9735 23.4719 9.85153
LeftUpLeg  -32.8129 6.11379 -12.9387
LeftLeg  32.5531 3.31713 1.82326
LeftFoot  -6.04831 0.000260904 0.00492944
LeftToes  3.51864 2.01279e-006 2.21547e-008
401
root  -5.28382 30.9362 -50.1314 -151.558 -89.5183 156.413
RightUpLeg  6.96612 -8.19703 -1.05894
RightLeg  50.1522 -3.21786 -3.42714
RightFoot  14.1966 0.0983164 -0.411937
RightToes  -43.1246 -0.243913 -0.332084
Spine  8.01039 4.79389 -2.88266
Spine1  12.7553 13.1379 -8.73319
HEad  37.3109 -0.12553 5.65406
LeftShoulder1  0 -2.42657e-020 -4.95415e-022
LeftArm  -20.4759 -4.28258 -88.0419
LeftForeArm  43.1164 -20.9991 -3.85955
LeftHand  0.181597 -9.69006 -2.51389
RightShoulder  0 2.42657e-020 1.07489e-018
RightArm  -25.0182 33.0154 83.3302
RightForeArm  78.2342 4.7508 0.75419
RightHand  2.7083 18.1269 17.2342
LeftUpLeg  -33.4502 3.31045 -13.3408
LeftLeg  43.7393 2.11784 1.77368
LeftFoot  -11.3856 -0.012363 -0.124028
LeftToes  10.9947 2.01279e-006 2.21547e-008
402
root  -7.60869 30.2492 -50.3735 -30.4326 -86.829 33.8757
RightUpLeg  3.45646 -9.6452 -3.46634
RightLeg  61.2374 -0.964369 -1.61126
RightFoot  7.99175 0.0022235 0.345688
RightToes  -42.8724 -0.241826 -0.330766
Spine  9.07033 4.44254 -3.80801
Spine1  14.4302 12.1134 -9.79406
HEad  37.6059 -4.08499 9.44032
LeftShoulder1  0 -2.42657e-020 -4.95415e-022
LeftArm  -18.2473 -8.36088 -87.0391
LeftForeArm  41.7961 -23.3202 -4.33936
LeftHand  0.201753 -9.7599 -2.73461
RightShoulder  0 2.42657e-020 1.07489e-018
RightArm  -32.6742 30.2186 83.3492
RightForeArm  79.3289 6.8792 1.12786
RightHand  2.1214 16.0121 15.3746
LeftUpLeg  -31.2435 5.03606 -14.6828
LeftLeg  50.2811 -0.352725 -0.380497
LeftFoot  -17.4581 0.0734629 0.478447
LeftToes  12.3358 2.01279e-006 2.21547e-008
403
root  -9.70244 29.8757 -50.522 -22.115 -83.9435 25.6705
RightUpLeg  -3.48108 -10.6685 -4.90609
RightLeg  70.4628 -1.62046 -3.94413
RightFoot  4.53046 0.00953012 0.136603
RightToes  -42.317 -0.237252 -0.327833
Spine  8.99224 3.22017 -4.09233
Spine1  14.6647 9.08623 -9.87076
HEad  39.1784 -5.0538 10.2606
LeftShoulder1  0 -2.42657e-020 -4.95415e-022
LeftArm  -18.3592 -9.65871 -86.2904
LeftForeArm  41.1424 -26.9393 -5.12194
LeftHand  0.051093 -9.48093 -0.986786
RightShoulder  0 2.42657e-020 1.07489e-018
RightArm  -33.5336 25.1364 84.5545
RightForeArm  74.6704 11.1529 1.91008
RightHand  0.93039 20.326 5.55842
LeftUpLeg  -28.4639 3.92259 -14.8795
LeftLeg  52.8131 -1.13232 -1.31651
LeftFoot  -21.8312 0.161218 0.835943
LeftToes  10.5865 2.01279e-006 2.21547e-008
404
root  -11.7043 29.9593 -50.6583 -15.9511 -81.7188 19.6963
RightUpLeg  -11.6081 -10.3835 -5.30128
RightLeg  76.2416 -2.6404 -8.60155
RightFoot  -0.623452 0.00033626 0.439846
RightToes  -34.5819 -0.176712 -0.282517
Spine  8.65026 1.8241 -3.92173
Spine1  14.6193 5.75907 -9.39831
HEad  39.6089 -3.53428 9.17897
LeftShoulder1  0 -2.42657e-020 -4.95415e-022
LeftArm  -17.8087 -8.50135 -85.0852
LeftForeArm  37.5915 -32.2195 -6.36702
LeftHand  -0.165538 -8.55632 1.84413
RightShoulder  0 2.42657e-020 1.07489e-018
RightArm  -21.2483 17.8405 84.0476
RightForeArm  60.6325 17.0902 3.05707
RightHand  -0.427058 21.6219 -1.86665
LeftUpLeg  -24.3067 1.43293 -14.2342
LeftLeg  51.9196 -0.923384 -1.0419
LeftFoot  -24.1358 0.141817 0.663314
LeftToes  9.52057 2.01279e-006 2.21547e-008
405
root  -13.7398 30.4848 -50.8098 -11.4966 -81.1601 15.4401
RightUpLeg  -19.7039 -8.29283 -5.06579
RightLeg  77.1764 -3.60529 -12.2507
RightFoot  -4.80207 0.0390389 1.30876
RightToes  -26.6614 -0.12162 -0.228106
Spine  8.23081 0.934338 -3.44878
Spine1  14.4163 3.47734 -8.28578
HEad  38.6758 -1.31793 7.11069
LeftShoulder1  0 -2.42657e-020 -4.95415e-022
LeftArm  -17.7978 -5.99878 -84.0511
LeftForeArm  36.7752 -39.9196 -8.47952
LeftHand  -0.161934 -8.18482 1.89465
RightShoulder  0 2.42657e-020 1.07489e-018
RightArm  -14.8004 10.8965 82.155
RightForeArm  49.0786 22.8298 4.22785
RightHand  -0.603948 22.8835 -2.61408
LeftUpLeg  -18.4386 0.141586 -12.8979
LeftLeg  47.0814 -0.564056 -0.540128
LeftFoot  -24.457 0.0761295 0.351257
LeftToes  8.19751 2.01279e-006 2.21547e-008
406
root  -15.8409 31.3333 -51.0033 -0.911087 -80.5971 5.50072
RightUpLeg  -26.0961 -6.42451 -3.6723
RightLeg  71.7059 -5.24708 -12.9398
RightFoot  -7.33096 0.0967658 1.88814
RightToes  -20.4148 -0.0837833 -0.180149
Spine  7.60539 -0.0903489 -2.53845
Spine1  13.8112 0.725193 -5.96336
HEad  37.5587 0.791901 5.00214
LeftShoulder1  0 -2.42657e-020 -4.95415e-022
LeftArm  -17.8543 -2.27308 -83.2595
LeftForeArm  38.2431 -48.4384 -11.4827
LeftHand  -0.108466 -8.23065 1.13845
RightShoulder  0 2.42657e-020 1.07489e-018
RightArm  -16.4266 5.14049 80.7181
RightForeArm  44.3251 26.1317 4.94119
RightHand  0.581137 24.0615 3.09715
LeftUpLeg  -12.081 -1.28243 -10.5136
LeftLeg  39.9722 -0.00885649 -0.0118331
LeftFoot  -21.9002 0.00190985 0.00986213
LeftToes  4.78787 2.01279e-006 2.21547e-008
407
root  -18.0284 32.3517 -51.2154 9.23885 -78.9533 -3.78523
RightUpLeg  -29.2799 -5.39295 -1.94823
RightLeg  59.5766 -7.34983 -10.7724
RightFoot  -8.01387 0.1008 1.81664
RightToes  -19.9741 -0.0813145 -0.176614
Spine  6.94517 -1.17097 -1.66372
Spine1  12.9464 -2.06206 -3.73734
HEad  36.7712 2.1191 4.37708
LeftShoulder1  0 -2.42657e-020 -4.95415e-022
LeftArm  -16.7689 3.00771 -81.9849
LeftForeArm  43.171 -58.5854 -16.832
LeftHand  -0.17057 -8.6506 1.88646
RightShoulder  0 2.42657e-020 1.07489e-018
RightArm  -20.6062 -0.822549 80.0276
RightForeArm  41.0237 28.0562 5.37625
RightHand  1.45306 23.9594 7.21214
LeftUpLeg  -6.44899 -3.07628 -7.65252
LeftLeg  33.3143 0.0497286 0.0240729
LeftFoot  -15.6341 -0.00216648 -0.0157898
LeftToes  -2.13792 2.01279e-006 2.21547e-008
408
root  -20.3404 33.3164 -51.4576 15.8084 -77.309 -9.23224
RightUpLeg  -29.3195 -4.09111 -0.457581
RightLeg  41.7093 -8.87049 -6.89714
RightFoot  -6.18124 0.0425393 1.16552
RightToes  -23.3287 -0.100782 -0.203032
Spine  6.22053 -2.00881 -1.03996
Spine1  11.8187 -4.16208 -2.07987
HEad  35.9878 2.53708 4.98309
LeftShoulder1  0 -2.42657e-020 -4.95415e-022
LeftArm  -17.3257 10.3649 -81.2438
LeftForeArm  57.479 -70.1461 -29.4084
LeftHand  -0.261979 -9.46116 2.79711
RightShoulder  0 2.42657e-020 1.07489e-018
RightArm  -23.7883 -6.93911 79.5145
RightForeArm  38.9039 29.2538 5.65484
RightHand  1.19994 23.7014 6.08558
LeftUpLeg  -2.44168 -2.69793 -4.3324
LeftLeg  28.7207 -2.21448 -1.03762
LeftFoot  -7.08107 0.0168332 0.272051
LeftToes  -11.5262 2.01279e-006 2.21547e-008
409
root  -22.7414 33.9457 -51.631 17.1911 -76.1605 -9.27632
RightUpLeg  -27.9 -3.16341 -0.202668
RightLeg  22.6091 -7.13395 -2.43953
RightFoot  -2.48639 -0.00208907 0.281363
RightToes  -32.7318 -0.163178 -0.270497
Spine  5.54237 -2.51738 -0.938005
Spine1  10.6952 -5.27678 -1.80335
HEad  34.2485 2.77864 6.16899
LeftShoulder1  0 -2.42657e-020 -4.95415e-022
LeftArm  -18.1889 18.5975 -80.4899
LeftForeArm  98.3275 -79.1255 -67.7919
LeftHand  -0.502012 -9.04298 5.97639
RightShoulder  0 2.42657e-020 1.07489e-018
RightArm  -26.654 -13.1047 79.2491
RightForeArm  38.7558 31.8763 6.2839
RightHand  1.06014 23.4176 5.48346
LeftUpLeg  -0.452085 -2.06972 -2.06513
LeftLeg  27.5174 -4.9077 -2.16787
LeftFoot  1.5128 0.00270181 -0.204654
LeftToes  -22.1165 2.01279e-006 2.21547e-008
410
root  -25.1767 34.1585 -51.761 15.2175 -75.3836 -6.43968
RightUpLeg  -27.3301 -3.96376 -0.183925
RightLeg  11.2415 -2.95612 -0.390511
RightFoot  1.01277 0.00420917 -0.0986209
RightToes  -42.8494 -0.241636 -0.330646
Spine  5.15487 -2.59534 -1.10584
Spine1  10.0636 -5.41129 -2.1662
HEad  31.7734 2.417 7.51047
LeftShoulder1  0 -2.42657e-020 -4.95415e-022
LeftArm  -17.9053 25.9747 -79.5668
LeftForeArm  157.244 -77.4366 -126.774
LeftHand  -0.876771 -9.4977 10.1621
RightShoulder  0 2.42657e-020 1.07489e-018
RightArm  -30.346 -18.7181 79.1023
RightForeArm  36.9153 34.4951 6.95206
RightHand  1.16809 22.9269 6.12719
LeftUpLeg  -0.546279 -3.34833 -1.2831
LeftLeg  31.3413 -5.90257 -3.08904
LeftFoot  7.55887 0.0635713 -0.962322
LeftToes  -23.3376 2.01279e-006 2.21547e-008
411
root  -27.7427 33.9374 -51.949 15.4746 -75.022 -7.73734
RightUpLeg  -26.9938 -3.02369 1.07967
RightLeg  10.4709 -1.13728 -0.133949
RightFoot  0.93905 0.00363396 -0.0658394
RightToes  -42.7757 -0.241027 -0.330259
Spine  5.31832 -2.17558 -1.11119
Spine1  10.4229 -4.57659 -2.13516
HEad  30.11 1.37061 8.6808
LeftShoulder1  0 -2.42657e-020 -4.95415e-022
LeftArm  -16.9769 32.7788 -79.3886
LeftForeArm  -175.002 -69.6015 -151.201
LeftHand  -1.35333 -9.80718 15.3172
RightShoulder  0 2.42657e-020 1.07489e-018
RightArm  -31.5715 -21.8622 77.8984
RightForeArm  34.0437 34.0798 6.84629
RightHand  1.06896 22.2719 5.79822
LeftUpLeg  -1.25162 -4.44572 0.117782
LeftLeg  39.9154 -5.73355 -4.19229
LeftFoot  11.84 0.162942 -1.5713
LeftToes  -23.8532 2.01279e-006 2.21547e-008
412
root  -30.3965 33.2994 -52.177 17.827 -75.5774 -12.8954
RightUpLeg  -26.2325 -1.76515 3.66701
RightLeg  17.2366 0.857435 0.206511
RightFoot  3.03678 0.0107364 -0.0274817
RightToes  -44.0088 -0.251273 -0.336629
Spine  5.90827 -1.51804 -0.913543
Spine1  11.5971 -3.22428 -1.76524
HEad  29.4374 1.05792 9.05506
LeftShoulder1  0 -2.42657e-020 -4.95415e-022
LeftArm  -16.9474 39.3292 -81.2871
LeftForeArm  -161.292 -61.389 -160.753
LeftHand  -1.71761 -9.29045 20.5506
RightShoulder  0 2.42657e-020 1.07489e-018
RightArm  -30.5469 -21.831 75.6766
RightForeArm  35.3016 32.0554 6.33173
RightHand  1.2006 22.3828 6.43462
LeftUpLeg  -1.46108 -4.77089 1.96384
LeftLeg  50.5072 -4.8422 -5.14853
LeftFoot  14.4284 0.238605 -1.88485
LeftToes  -26.7883 2.01279e-006 2.21547e-008
413
root  -32.8398 32.3056 -52.4332 20.3128 -76.6907 -17.8343
RightUpLeg  -27.7825 -0.957624 6.01861
RightLeg  30.3321 1.64419 0.815804
RightFoot  3.65636 0.0113538 0.0218339
RightToes  -39.177 -0.211942 -0.310426
Spine  6.42919 -0.724988 -0.744393
Spine1  12.6337 -1.56482 -1.48372
HEad  28.7513 0.955115 8.53413
LeftShoulder1  0 -2.42657e-020 -4.95415e-022
LeftArm  -17.462 44.3848 -84.607
LeftForeArm  -151.613 -55.1143 -165.013
LeftHand  -2.19181 -9.27324 26.1926
RightShoulder  0 2.42657e-020 1.07489e-018
RightArm  -27.9391 -20.4176 73.003
RightForeArm  37.3534 31.6416 6.22769
RightHand  1.35014 22.6365 7.11008
LeftUpLeg  -3.3741 -4.31717 3.6725
LeftLeg  61.9077 -3.34699 -5.39587
LeftFoot  8.16488 0.0715422 -1.00236
LeftToes  -22.6797 2.01279e-006 2.21547e-008
